<?xml version="1.0" encoding="utf-8"?>
<!-- Svg Vector Icons : http://www.onlinewebfonts.com/icon -->
<!DOCTYPE svg PUBLIC "-//W3C//DTD SVG 1.1//EN" "http://www.w3.org/Graphics/SVG/1.1/DTD/svg11.dtd">
<svg version="1.1" xmlns="http://www.w3.org/2000/svg" xmlns:xlink="http://www.w3.org/1999/xlink" x="0px" y="0px" viewBox="0 0 256 256" enable-background="new 0 0 256 256" xml:space="preserve">
<metadata> Svg Vector Icons : http://www.onlinewebfonts.com/icon </metadata>
<g><g><path fill="#000000" d="M128,10C62.8,10,10,62.8,10,128c0,65.2,52.8,118,118,118c65.2,0,118-52.8,118-118C246,62.8,193.2,10,128,10z M193.1,126.6l-12.2-10.9L113,180.9l-13.6-24.4l-46.2,54.3L41,151h21.7l2.7,12.2l38-48.9l13.6,32.6L166,99.4l-12.2-10.9c0,0,18.4-5,34.1-11.3c16.1-6.5,32.4-14.4,32.4-14.4S199.2,100.6,193.1,126.6z"/></g></g>
</svg>